<?xml version="1.0" encoding="UTF-8" standalone="no"?>
<!DOCTYPE svg PUBLIC "-//W3C//DTD SVG 1.1//EN"
 "http://www.w3.org/Graphics/SVG/1.1/DTD/svg11.dtd">
<!-- Generated by graphviz version 2.43.0 (0)
 -->
<!-- Title: summary Pages: 1 -->
<svg width="1031pt" height="663pt"
 viewBox="0.00 0.00 1030.85 663.46" xmlns="http://www.w3.org/2000/svg" xmlns:xlink="http://www.w3.org/1999/xlink">
<g id="graph0" class="graph" transform="scale(1 1) rotate(0) translate(4 659.46)">
<title>summary</title>
<polygon fill="white" stroke="transparent" points="-4,4 -4,-659.46 1026.85,-659.46 1026.85,4 -4,4"/>
<!-- is_handheld_on -->
<g id="node1" class="node">
<title>is_handheld_on</title>
<polygon fill="lightgreen" stroke="black" points="741.23,-625.18 741.23,-642.88 682.64,-655.39 599.77,-655.39 541.18,-642.88 541.18,-625.18 599.77,-612.67 682.64,-612.67 741.23,-625.18"/>
<text text-anchor="middle" x="641.2" y="-629.63" font-family="Times,serif" font-size="18.00">is_handheld_on</text>
</g>
<!-- turn_on_handheld -->
<g id="node7" class="node">
<title>turn_on_handheld</title>
<ellipse fill="none" stroke="black" cx="558.2" cy="-543.6" rx="74.99" ry="18"/>
<text text-anchor="middle" x="558.2" y="-539.9" font-family="Times,serif" font-size="14.00">turn_on_handheld</text>
</g>
<!-- is_handheld_on&#45;&gt;turn_on_handheld -->
<g id="edge1" class="edge">
<title>is_handheld_on&#45;&gt;turn_on_handheld</title>
<path fill="none" stroke="black" d="M636.23,-612.52C632.83,-601.78 627.41,-588.95 619.2,-579.6 614.33,-574.05 608.36,-569.16 602.07,-564.94"/>
<polygon fill="black" stroke="black" points="603.73,-561.86 593.38,-559.6 600.07,-567.82 603.73,-561.86"/>
<text text-anchor="middle" x="637.7" y="-583.4" font-family="Times,serif" font-size="14.00">No</text>
</g>
<!-- is_scanner_linked -->
<g id="node15" class="node">
<title>is_scanner_linked</title>
<ellipse fill="none" stroke="black" cx="725.2" cy="-543.6" rx="74.19" ry="18"/>
<text text-anchor="middle" x="725.2" y="-539.9" font-family="Times,serif" font-size="14.00">is_scanner_linked</text>
</g>
<!-- is_handheld_on&#45;&gt;is_scanner_linked -->
<g id="edge20" class="edge">
<title>is_handheld_on&#45;&gt;is_scanner_linked</title>
<path fill="none" stroke="black" d="M660.69,-612.52C673,-599.55 688.99,-582.73 701.96,-569.06"/>
<polygon fill="black" stroke="black" points="704.86,-571.1 709.21,-561.44 699.78,-566.28 704.86,-571.1"/>
</g>
<!-- success -->
<g id="node2" class="node">
<title>success</title>
<ellipse fill="lightgreen" stroke="black" cx="50.2" cy="-19.8" rx="50.41" ry="19.6"/>
<text text-anchor="middle" x="50.2" y="-15.4" font-family="Times,serif" font-size="18.00">success</text>
</g>
<!-- verify_axware_barcode_settings -->
<g id="node3" class="node">
<title>verify_axware_barcode_settings</title>
<ellipse fill="pink" stroke="black" cx="243.2" cy="-19.8" rx="124.58" ry="18"/>
<text text-anchor="middle" x="243.2" y="-16.1" font-family="Times,serif" font-size="14.00">verify_axware_barcode_settings</text>
</g>
<!-- reset_scanner_and_start_over -->
<g id="node4" class="node">
<title>reset_scanner_and_start_over</title>
<ellipse fill="pink" stroke="black" cx="501.2" cy="-19.8" rx="115.08" ry="18"/>
<text text-anchor="middle" x="501.2" y="-16.1" font-family="Times,serif" font-size="14.00">reset_scanner_and_start_over</text>
</g>
<!-- use_python_to_verify_serial_data -->
<g id="node5" class="node">
<title>use_python_to_verify_serial_data</title>
<ellipse fill="pink" stroke="black" cx="764.2" cy="-19.8" rx="129.98" ry="18"/>
<text text-anchor="middle" x="764.2" y="-16.1" font-family="Times,serif" font-size="14.00">use_python_to_verify_serial_data</text>
</g>
<!-- replace_one_or_both_cables -->
<g id="node6" class="node">
<title>replace_one_or_both_cables</title>
<ellipse fill="pink" stroke="black" cx="674.2" cy="-108.6" rx="111.28" ry="18"/>
<text text-anchor="middle" x="674.2" y="-104.9" font-family="Times,serif" font-size="14.00">replace_one_or_both_cables</text>
</g>
<!-- turn_on_handheld&#45;&gt;is_handheld_on -->
<g id="edge2" class="edge">
<title>turn_on_handheld&#45;&gt;is_handheld_on</title>
<path fill="none" stroke="black" d="M552.38,-561.65C549.95,-571.97 548.96,-584.97 555.2,-594.6 559.52,-601.25 565.29,-606.77 571.81,-611.33"/>
<polygon fill="black" stroke="black" points="570.06,-614.37 580.41,-616.62 573.72,-608.4 570.06,-614.37"/>
<text text-anchor="middle" x="585.2" y="-583.4" font-family="Times,serif" font-size="14.00">Try again1</text>
</g>
<!-- is_barcoding_activated_in_axware -->
<g id="node8" class="node">
<title>is_barcoding_activated_in_axware</title>
<ellipse fill="none" stroke="black" cx="369.2" cy="-369.6" rx="133.48" ry="18"/>
<text text-anchor="middle" x="369.2" y="-365.9" font-family="Times,serif" font-size="14.00">is_barcoding_activated_in_axware</text>
</g>
<!-- activate_barcoding_in_axware -->
<g id="node9" class="node">
<title>activate_barcoding_in_axware</title>
<ellipse fill="none" stroke="black" cx="369.2" cy="-282.6" rx="118.08" ry="18"/>
<text text-anchor="middle" x="369.2" y="-278.9" font-family="Times,serif" font-size="14.00">activate_barcoding_in_axware</text>
</g>
<!-- is_barcoding_activated_in_axware&#45;&gt;activate_barcoding_in_axware -->
<g id="edge3" class="edge">
<title>is_barcoding_activated_in_axware&#45;&gt;activate_barcoding_in_axware</title>
<path fill="none" stroke="black" d="M369.2,-351.4C369.2,-339.76 369.2,-324.15 369.2,-310.83"/>
<polygon fill="black" stroke="black" points="372.7,-310.77 369.2,-300.77 365.7,-310.77 372.7,-310.77"/>
<text text-anchor="middle" x="377.7" y="-322.4" font-family="Times,serif" font-size="14.00">No</text>
</g>
<!-- is_axware_set_to_staging -->
<g id="node10" class="node">
<title>is_axware_set_to_staging</title>
<ellipse fill="none" stroke="black" cx="165.2" cy="-195.6" rx="101.28" ry="18"/>
<text text-anchor="middle" x="165.2" y="-191.9" font-family="Times,serif" font-size="14.00">is_axware_set_to_staging</text>
</g>
<!-- is_barcoding_activated_in_axware&#45;&gt;is_axware_set_to_staging -->
<g id="edge23" class="edge">
<title>is_barcoding_activated_in_axware&#45;&gt;is_axware_set_to_staging</title>
<path fill="none" stroke="black" d="M314.2,-353.2C283.64,-342.44 246.58,-325.48 220.2,-300.6 197.56,-279.23 182.38,-246.44 173.8,-223.4"/>
<polygon fill="black" stroke="black" points="177.07,-222.13 170.43,-213.88 170.47,-224.47 177.07,-222.13"/>
<text text-anchor="middle" x="231.2" y="-278.9" font-family="Times,serif" font-size="14.00">Yes</text>
</g>
<!-- activate_barcoding_in_axware&#45;&gt;is_axware_set_to_staging -->
<g id="edge19" class="edge">
<title>activate_barcoding_in_axware&#45;&gt;is_axware_set_to_staging</title>
<path fill="none" stroke="black" d="M330.35,-265.41C296.82,-251.44 248.27,-231.21 212.49,-216.3"/>
<polygon fill="black" stroke="black" points="213.8,-213.05 203.22,-212.44 211.1,-219.51 213.8,-213.05"/>
<text text-anchor="middle" x="306.7" y="-235.4" font-family="Times,serif" font-size="14.00">Activated</text>
</g>
<!-- select_correct_com_port_in_axware -->
<g id="node21" class="node">
<title>select_correct_com_port_in_axware</title>
<ellipse fill="none" stroke="black" cx="423.2" cy="-195.6" rx="139.18" ry="18"/>
<text text-anchor="middle" x="423.2" y="-191.9" font-family="Times,serif" font-size="14.00">select_correct_com_port_in_axware</text>
</g>
<!-- activate_barcoding_in_axware&#45;&gt;select_correct_com_port_in_axware -->
<g id="edge17" class="edge">
<title>activate_barcoding_in_axware&#45;&gt;select_correct_com_port_in_axware</title>
<path fill="none" stroke="black" d="M386.68,-264.72C391.77,-259.25 397.07,-252.94 401.2,-246.6 405.86,-239.45 409.97,-231.14 413.33,-223.38"/>
<polygon fill="black" stroke="black" points="416.63,-224.55 417.18,-213.97 410.15,-221.9 416.63,-224.55"/>
<text text-anchor="middle" x="460.2" y="-235.4" font-family="Times,serif" font-size="14.00">Unable to activate</text>
</g>
<!-- set_axware_to_staging_mode -->
<g id="node11" class="node">
<title>set_axware_to_staging_mode</title>
<ellipse fill="none" stroke="black" cx="125.2" cy="-108.6" rx="115.88" ry="18"/>
<text text-anchor="middle" x="125.2" y="-104.9" font-family="Times,serif" font-size="14.00">set_axware_to_staging_mode</text>
</g>
<!-- is_axware_set_to_staging&#45;&gt;set_axware_to_staging_mode -->
<g id="edge4" class="edge">
<title>is_axware_set_to_staging&#45;&gt;set_axware_to_staging_mode</title>
<path fill="none" stroke="black" d="M140.36,-177.84C134.68,-172.7 129.39,-166.55 126.2,-159.6 123.06,-152.73 121.93,-144.76 121.82,-137.22"/>
<polygon fill="black" stroke="black" points="125.33,-137.15 122.23,-127.02 118.33,-136.87 125.33,-137.15"/>
<text text-anchor="middle" x="134.7" y="-148.4" font-family="Times,serif" font-size="14.00">No</text>
</g>
<!-- does_axware_see_good_data -->
<g id="node22" class="node">
<title>does_axware_see_good_data</title>
<ellipse fill="none" stroke="black" cx="372.2" cy="-108.6" rx="113.18" ry="18"/>
<text text-anchor="middle" x="372.2" y="-104.9" font-family="Times,serif" font-size="14.00">does_axware_see_good_data</text>
</g>
<!-- is_axware_set_to_staging&#45;&gt;does_axware_see_good_data -->
<g id="edge24" class="edge">
<title>is_axware_set_to_staging&#45;&gt;does_axware_see_good_data</title>
<path fill="none" stroke="black" d="M203.65,-178.81C237.57,-164.88 287.16,-144.52 323.77,-129.49"/>
<polygon fill="black" stroke="black" points="325.34,-132.63 333.26,-125.59 322.68,-126.15 325.34,-132.63"/>
<text text-anchor="middle" x="292.2" y="-148.4" font-family="Times,serif" font-size="14.00">Yes</text>
</g>
<!-- set_axware_to_staging_mode&#45;&gt;is_axware_set_to_staging -->
<g id="edge5" class="edge">
<title>set_axware_to_staging_mode&#45;&gt;is_axware_set_to_staging</title>
<path fill="none" stroke="black" d="M134.2,-126.58C137.15,-132.27 140.38,-138.68 143.2,-144.6 146.82,-152.18 150.57,-160.51 153.92,-168.15"/>
<polygon fill="black" stroke="black" points="150.73,-169.58 157.92,-177.36 157.15,-166.79 150.73,-169.58"/>
<text text-anchor="middle" x="165.7" y="-148.4" font-family="Times,serif" font-size="14.00">Retry</text>
</g>
<!-- does_cable_2_light_up -->
<g id="node12" class="node">
<title>does_cable_2_light_up</title>
<ellipse fill="none" stroke="black" cx="841.2" cy="-456.6" rx="92.08" ry="18"/>
<text text-anchor="middle" x="841.2" y="-452.9" font-family="Times,serif" font-size="14.00">does_cable_2_light_up</text>
</g>
<!-- does_cable_2_light_up&#45;&gt;is_barcoding_activated_in_axware -->
<g id="edge25" class="edge">
<title>does_cable_2_light_up&#45;&gt;is_barcoding_activated_in_axware</title>
<path fill="none" stroke="black" d="M775.58,-443.78C692.11,-428.75 547.78,-402.76 455.48,-386.14"/>
<polygon fill="black" stroke="black" points="456.07,-382.68 445.61,-384.36 454.83,-389.57 456.07,-382.68"/>
<text text-anchor="middle" x="645.2" y="-409.4" font-family="Times,serif" font-size="14.00">Yes</text>
</g>
<!-- is_cable_1_connected -->
<g id="node13" class="node">
<title>is_cable_1_connected</title>
<ellipse fill="none" stroke="black" cx="725.2" cy="-369.6" rx="88.28" ry="18"/>
<text text-anchor="middle" x="725.2" y="-365.9" font-family="Times,serif" font-size="14.00">is_cable_1_connected</text>
</g>
<!-- does_cable_2_light_up&#45;&gt;is_cable_1_connected -->
<g id="edge6" class="edge">
<title>does_cable_2_light_up&#45;&gt;is_cable_1_connected</title>
<path fill="none" stroke="black" d="M818.56,-439.01C800.76,-425.96 775.77,-407.65 756.12,-393.25"/>
<polygon fill="black" stroke="black" points="757.92,-390.23 747.79,-387.15 753.79,-395.88 757.92,-390.23"/>
<text text-anchor="middle" x="798.7" y="-409.4" font-family="Times,serif" font-size="14.00">No</text>
</g>
<!-- is_cable_2_connected -->
<g id="node16" class="node">
<title>is_cable_2_connected</title>
<ellipse fill="none" stroke="black" cx="642.2" cy="-282.6" rx="88.28" ry="18"/>
<text text-anchor="middle" x="642.2" y="-278.9" font-family="Times,serif" font-size="14.00">is_cable_2_connected</text>
</g>
<!-- is_cable_1_connected&#45;&gt;is_cable_2_connected -->
<g id="edge8" class="edge">
<title>is_cable_1_connected&#45;&gt;is_cable_2_connected</title>
<path fill="none" stroke="black" d="M708.81,-351.8C696.53,-339.23 679.56,-321.85 665.82,-307.78"/>
<polygon fill="black" stroke="black" points="668.06,-305.07 658.57,-300.36 663.05,-309.96 668.06,-305.07"/>
<text text-anchor="middle" x="700.2" y="-322.4" font-family="Times,serif" font-size="14.00">Yes</text>
</g>
<!-- connect_cable_1 -->
<g id="node18" class="node">
<title>connect_cable_1</title>
<ellipse fill="none" stroke="black" cx="818.2" cy="-282.6" rx="69.59" ry="18"/>
<text text-anchor="middle" x="818.2" y="-278.9" font-family="Times,serif" font-size="14.00">connect_cable_1</text>
</g>
<!-- is_cable_1_connected&#45;&gt;connect_cable_1 -->
<g id="edge11" class="edge">
<title>is_cable_1_connected&#45;&gt;connect_cable_1</title>
<path fill="none" stroke="black" d="M743.58,-351.8C757.55,-339.03 776.96,-321.3 792.47,-307.12"/>
<polygon fill="black" stroke="black" points="795.17,-309.4 800.19,-300.07 790.44,-304.23 795.17,-309.4"/>
<text text-anchor="middle" x="786.7" y="-322.4" font-family="Times,serif" font-size="14.00">No</text>
</g>
<!-- link_scanner_with_base -->
<g id="node14" class="node">
<title>link_scanner_with_base</title>
<ellipse fill="none" stroke="black" cx="635.2" cy="-456.6" rx="95.58" ry="18"/>
<text text-anchor="middle" x="635.2" y="-452.9" font-family="Times,serif" font-size="14.00">link_scanner_with_base</text>
</g>
<!-- link_scanner_with_base&#45;&gt;is_scanner_linked -->
<g id="edge7" class="edge">
<title>link_scanner_with_base&#45;&gt;is_scanner_linked</title>
<path fill="none" stroke="black" d="M631.07,-474.81C629.6,-485.19 629.66,-498.19 636.2,-507.6 642.17,-516.17 650.58,-522.64 659.87,-527.53"/>
<polygon fill="black" stroke="black" points="658.44,-530.73 668.99,-531.75 661.38,-524.37 658.44,-530.73"/>
<text text-anchor="middle" x="669.7" y="-496.4" font-family="Times,serif" font-size="14.00">Try Again 5</text>
</g>
<!-- is_scanner_linked&#45;&gt;does_cable_2_light_up -->
<g id="edge22" class="edge">
<title>is_scanner_linked&#45;&gt;does_cable_2_light_up</title>
<path fill="none" stroke="black" d="M747.3,-526.41C765.13,-513.34 790.42,-494.81 810.27,-480.27"/>
<polygon fill="yellow" stroke="black" points="812.4,-483.04 818.4,-474.31 808.27,-477.39 812.4,-483.04"/>
<text text-anchor="middle" x="801.2" y="-496.4" font-family="Times,serif" font-size="14.00">Yes</text>
</g>
<!-- is_scanner_linked&#45;&gt;link_scanner_with_base -->
<g id="edge21" class="edge">
<title>is_scanner_linked&#45;&gt;link_scanner_with_base</title>
<path fill="none" stroke="black" d="M720.76,-525.19C717.36,-514.72 711.78,-501.71 703.2,-492.6 698.01,-487.08 691.76,-482.28 685.17,-478.16"/>
<polygon fill="black" stroke="black" points="686.47,-474.87 676.05,-472.95 683,-480.95 686.47,-474.87"/>
<text text-anchor="middle" x="722.7" y="-496.4" font-family="Times,serif" font-size="14.00">No</text>
</g>
<!-- connect_cable_2 -->
<g id="node17" class="node">
<title>connect_cable_2</title>
<ellipse fill="none" stroke="black" cx="856.2" cy="-195.6" rx="69.59" ry="18"/>
<text text-anchor="middle" x="856.2" y="-191.9" font-family="Times,serif" font-size="14.00">connect_cable_2</text>
</g>
<!-- is_cable_2_connected&#45;&gt;connect_cable_2 -->
<g id="edge9" class="edge">
<title>is_cable_2_connected&#45;&gt;connect_cable_2</title>
<path fill="none" stroke="black" d="M680.96,-266.21C717.38,-251.74 771.9,-230.08 810.45,-214.77"/>
<polygon fill="black" stroke="black" points="811.88,-217.97 819.88,-211.03 809.29,-211.46 811.88,-217.97"/>
<text text-anchor="middle" x="770.7" y="-235.4" font-family="Times,serif" font-size="14.00">No</text>
</g>
<!-- does_base_have_power -->
<g id="node19" class="node">
<title>does_base_have_power</title>
<ellipse fill="none" stroke="black" cx="674.2" cy="-195.6" rx="94.48" ry="18"/>
<text text-anchor="middle" x="674.2" y="-191.9" font-family="Times,serif" font-size="14.00">does_base_have_power</text>
</g>
<!-- is_cable_2_connected&#45;&gt;does_base_have_power -->
<g id="edge13" class="edge">
<title>is_cable_2_connected&#45;&gt;does_base_have_power</title>
<path fill="none" stroke="black" d="M648.68,-264.4C653.1,-252.65 659.06,-236.84 664.1,-223.44"/>
<polygon fill="black" stroke="black" points="667.49,-224.37 667.74,-213.77 660.94,-221.9 667.49,-224.37"/>
<text text-anchor="middle" x="671.2" y="-235.4" font-family="Times,serif" font-size="14.00">Yes</text>
</g>
<!-- connect_cable_2&#45;&gt;does_cable_2_light_up -->
<g id="edge10" class="edge">
<title>connect_cable_2&#45;&gt;does_cable_2_light_up</title>
<path fill="none" stroke="black" d="M869.83,-213.27C879.58,-226.35 891.89,-245.47 897.2,-264.6 901.49,-280.01 899.96,-284.84 897.2,-300.6 889,-347.44 867.84,-398.8 854.01,-429.06"/>
<polygon fill="black" stroke="black" points="850.68,-427.93 849.63,-438.48 857.02,-430.88 850.68,-427.93"/>
</g>
<!-- connect_cable_1&#45;&gt;does_cable_2_light_up -->
<g id="edge12" class="edge">
<title>connect_cable_1&#45;&gt;does_cable_2_light_up</title>
<path fill="none" stroke="black" d="M820.48,-300.65C824.47,-330.48 832.75,-392.36 837.55,-428.24"/>
<polygon fill="black" stroke="black" points="834.12,-429.03 838.92,-438.48 841.06,-428.1 834.12,-429.03"/>
</g>
<!-- does_base_have_power&#45;&gt;replace_one_or_both_cables -->
<g id="edge14" class="edge">
<title>does_base_have_power&#45;&gt;replace_one_or_both_cables</title>
<path fill="none" stroke="black" d="M674.2,-177.4C674.2,-165.76 674.2,-150.15 674.2,-136.83"/>
<polygon fill="black" stroke="black" points="677.7,-136.77 674.2,-126.77 670.7,-136.77 677.7,-136.77"/>
<text text-anchor="middle" x="685.2" y="-148.4" font-family="Times,serif" font-size="14.00">Yes</text>
</g>
<!-- supply_power_to_base -->
<g id="node20" class="node">
<title>supply_power_to_base</title>
<ellipse fill="none" stroke="black" cx="931.2" cy="-108.6" rx="91.78" ry="18"/>
<text text-anchor="middle" x="931.2" y="-104.9" font-family="Times,serif" font-size="14.00">supply_power_to_base</text>
</g>
<!-- does_base_have_power&#45;&gt;supply_power_to_base -->
<g id="edge15" class="edge">
<title>does_base_have_power&#45;&gt;supply_power_to_base</title>
<path fill="none" stroke="black" d="M719.26,-179.69C763.21,-165.16 830.1,-143.04 876.95,-127.54"/>
<polygon fill="black" stroke="black" points="878.23,-130.8 886.63,-124.34 876.03,-124.16 878.23,-130.8"/>
<text text-anchor="middle" x="826.7" y="-148.4" font-family="Times,serif" font-size="14.00">No</text>
</g>
<!-- supply_power_to_base&#45;&gt;does_cable_2_light_up -->
<g id="edge16" class="edge">
<title>supply_power_to_base&#45;&gt;does_cable_2_light_up</title>
<path fill="none" stroke="black" d="M938.74,-126.81C945.44,-143.73 954.2,-170.44 954.2,-194.6 954.2,-370.6 954.2,-370.6 954.2,-370.6 954.2,-402.27 925.5,-423.61 897.02,-436.99"/>
<polygon fill="black" stroke="black" points="895.55,-433.81 887.82,-441.05 898.38,-440.21 895.55,-433.81"/>
</g>
<!-- select_correct_com_port_in_axware&#45;&gt;activate_barcoding_in_axware -->
<g id="edge18" class="edge">
<title>select_correct_com_port_in_axware&#45;&gt;activate_barcoding_in_axware</title>
<path fill="none" stroke="black" d="M384.39,-212.95C377.11,-217.85 370.46,-224 366.2,-231.6 362.41,-238.38 361.63,-246.52 362.22,-254.25"/>
<polygon fill="black" stroke="black" points="358.79,-254.98 363.73,-264.35 365.72,-253.95 358.79,-254.98"/>
<text text-anchor="middle" x="381.7" y="-235.4" font-family="Times,serif" font-size="14.00">Retry</text>
</g>
<!-- does_axware_see_good_data&#45;&gt;success -->
<g id="edge29" class="edge">
<title>does_axware_see_good_data&#45;&gt;success</title>
<path fill="none" stroke="black" d="M312.67,-93.21C259.2,-80.04 178.65,-59.62 109.2,-39.6 105.36,-38.49 101.39,-37.31 97.41,-36.1"/>
<polygon fill="black" stroke="black" points="98.15,-32.66 87.56,-33.05 96.08,-39.35 98.15,-32.66"/>
<text text-anchor="middle" x="236.2" y="-61.4" font-family="Times,serif" font-size="14.00">Yes</text>
</g>
<!-- does_axware_see_good_data&#45;&gt;verify_axware_barcode_settings -->
<g id="edge26" class="edge">
<title>does_axware_see_good_data&#45;&gt;verify_axware_barcode_settings</title>
<path fill="none" stroke="black" d="M347.33,-90.86C327.17,-77.29 298.56,-58.05 276.44,-43.16"/>
<polygon fill="black" stroke="black" points="278.25,-40.16 268,-37.48 274.34,-45.97 278.25,-40.16"/>
<text text-anchor="middle" x="341.7" y="-61.4" font-family="Times,serif" font-size="14.00">No (#1)</text>
</g>
<!-- does_axware_see_good_data&#45;&gt;reset_scanner_and_start_over -->
<g id="edge27" class="edge">
<title>does_axware_see_good_data&#45;&gt;reset_scanner_and_start_over</title>
<path fill="none" stroke="black" d="M397.08,-90.86C417.24,-77.29 445.85,-58.05 467.97,-43.16"/>
<polygon fill="black" stroke="black" points="470.07,-45.97 476.41,-37.48 466.16,-40.16 470.07,-45.97"/>
<text text-anchor="middle" x="466.7" y="-61.4" font-family="Times,serif" font-size="14.00">No (#2)</text>
</g>
<!-- does_axware_see_good_data&#45;&gt;use_python_to_verify_serial_data -->
<g id="edge28" class="edge">
<title>does_axware_see_good_data&#45;&gt;use_python_to_verify_serial_data</title>
<path fill="none" stroke="black" d="M435.62,-93.56C504.54,-78.3 614.62,-53.92 688.14,-37.64"/>
<polygon fill="black" stroke="black" points="689.25,-40.98 698.26,-35.4 687.74,-34.15 689.25,-40.98"/>
<text text-anchor="middle" x="613.7" y="-61.4" font-family="Times,serif" font-size="14.00">No (#3)</text>
</g>
</g>
</svg>
